<svg xmlns="http://www.w3.org/2000/svg" viewBox="0 0 512 512" width="512" height="512"><g transform="translate(0 0) scale(1)">
    <g transform="translate(2 -4)">
      <rect x="150" y="104" width="270" height="308" rx="10" fill="#f6efe1"/>
      <rect x="150" y="104" width="270" height="308" rx="10" fill="none" stroke="#ddd0b8" stroke-width="4"/>
      <path d="M392 118 v280" stroke="#ddd0b8" stroke-width="3" opacity="0.8"/>
      <path d="M404 128 v260" stroke="#ddd0b8" stroke-width="3" opacity="0.55"/>
      <rect x="96" y="86" width="288" height="340" rx="16" fill="#7c4a33"/>
      <path d="M96 102 a16 16 0 0 1 16-16 h34 v340 h-34 a16 16 0 0 1-16-16 z" fill="#5f3626"/>
      <path d="M158 86 v340" stroke="#c9a969" stroke-width="3" opacity="0.5"/>
      <rect x="182" y="118" width="176" height="276" rx="6" fill="none" stroke="#c9a969" stroke-width="4" opacity="0.65"/>
      <g transform="translate(270 222) scale(1.34) translate(-50 -46)">
        <path d="M50 90 C50 90 6 60 6 32 C6 14 19 3 33 3 C42 3 48 8 50 15 C52 8 58 3 67 3 C81 3 94 14 94 32 C94 60 50 90 50 90 Z" fill="#c9a969"/>
      </g>
      <path d="M228 330 h84" stroke="#c9a969" stroke-width="7" stroke-linecap="round" opacity="0.85"/>
      <path d="M246 356 h48" stroke="#c9a969" stroke-width="7" stroke-linecap="round" opacity="0.6"/>
    </g>
  </g></svg>